<svg width="472" height="188" viewBox="0 0 472 188" fill="none" xmlns="http://www.w3.org/2000/svg">
<rect x="38" y="6" width="428" height="146.2" fill="black" stroke="white" stroke-width="11.5"/>
<rect x="6" y="36" width="428" height="146" fill="black" stroke="#00A000" stroke-width="11.5"/>
<path d="M69.3594 158L32.1791 60.2144H46.2068L76.4413 141.657L106.676 60.2144H120.023L83.1147 158H69.3594ZM196.935 60.2144V71.6545H145.999V101.753H189.172V113.193H145.999V146.56H196.935V158H133.061V60.2144H196.935ZM227.132 158H214.058V60.2144H251.374C272.075 60.2144 285.286 68.1135 285.286 86.7718C285.286 102.434 275.752 110.605 260.227 113.193L287.329 158H272.348L246.063 113.193H227.132V158ZM252.736 101.753C264.449 101.753 272.348 97.8033 272.348 86.7718C272.348 75.7403 264.585 71.5183 250.693 71.5183H227.132V101.753H252.736ZM315.444 158H302.369V60.2144H315.444V158ZM336.949 129.672C343.078 141.385 354.109 148.194 366.775 148.194C379.441 148.194 389.247 141.929 389.247 130.762C389.247 118.913 377.943 116.87 363.098 113.329C347.708 109.652 332.455 105.43 332.455 87.0442C332.455 69.884 347.3 58.7163 365.822 58.7163C382.846 58.7163 395.103 66.8878 400.959 77.9193L391.017 85.8184C385.978 76.4212 378.215 70.0202 365.55 70.0202C353.701 70.0202 345.121 76.5574 345.121 85.9546C345.121 96.3052 354.246 98.4843 368.001 101.753C384.208 105.566 402.049 108.971 402.049 129.672C402.049 147.922 385.842 159.498 366.503 159.498C349.615 159.498 333.408 151.054 326.735 137.844L336.949 129.672Z" fill="#00A000"/>
<path d="M227.855 148.39V152.119L249.81 150.398L247.981 148.39H227.855Z" fill="black"/>
</svg>
